<svg width="20" height="20" viewBox="0 0 20 20" fill="none" xmlns="http://www.w3.org/2000/svg">
<path d="M8.57167 3.7525L10.4733 9.10917C10.5813 9.41363 10.8029 9.6645 11.0917 9.80917L16.1758 12.3508M16.1758 12.3533C16.7287 11.2496 16.9388 10.0057 16.779 8.7816C16.6192 7.55751 16.0968 6.40922 15.2791 5.48441C14.4614 4.5596 13.3857 3.90057 12.1904 3.59208C10.9951 3.28359 9.7348 3.33975 8.57167 3.75334L8.41083 3.3C8.18 2.64917 7.45917 2.3 6.8525 2.63167C5.80873 3.20155 4.90675 3.99926 4.21357 4.96554C3.52038 5.93183 3.05379 7.04187 2.84846 8.21322C2.64313 9.38457 2.70433 10.5871 3.02751 11.7316C3.35069 12.876 3.92755 13.933 4.71525 14.8239C5.50295 15.7148 6.48125 16.4169 7.57748 16.8778C8.67371 17.3388 9.85971 17.5469 11.0474 17.4866C12.2351 17.4264 13.3939 17.0993 14.4379 16.5297C15.4818 15.9602 16.384 15.1627 17.0775 14.1967C17.4808 13.635 17.2233 12.8758 16.605 12.5667L16.1758 12.3525" stroke="#71717B" stroke-width="1.66667" stroke-linecap="round" stroke-linejoin="round"/>
</svg>
