<svg width="24" height="24" viewBox="0 0 24 24" fill="none" xmlns="http://www.w3.org/2000/svg">
<path d="M12.0004 13.0008C12.5529 13.0008 13.0008 12.5529 13.0008 12.0004C13.0008 11.4479 12.5529 11 12.0004 11C11.4479 11 11 11.4479 11 12.0004C11 12.5529 11.4479 13.0008 12.0004 13.0008Z" stroke="#71717B" stroke-width="1.99917" stroke-linecap="round" stroke-linejoin="round"/>
<path d="M19.0004 13.0008C19.5529 13.0008 20.0008 12.5529 20.0008 12.0004C20.0008 11.4479 19.5529 11 19.0004 11C18.4479 11 18 11.4479 18 12.0004C18 12.5529 18.4479 13.0008 19.0004 13.0008Z" stroke="#71717B" stroke-width="1.99917" stroke-linecap="round" stroke-linejoin="round"/>
<path d="M5.00044 13.0008C5.55295 13.0008 6.00085 12.5529 6.00085 12.0004C6.00085 11.4479 5.55295 11 5.00044 11C4.44792 11 4.00002 11.4479 4.00002 12.0004C4.00002 12.5529 4.44792 13.0008 5.00044 13.0008Z" stroke="#71717B" stroke-width="1.99917" stroke-linecap="round" stroke-linejoin="round"/>
</svg>
