<svg width="20" height="20" viewBox="0 0 20 20" fill="none" xmlns="http://www.w3.org/2000/svg">
<path fill-rule="evenodd" clip-rule="evenodd" d="M9.62608 1.875C11.2212 1.87499 12.4976 1.87498 13.5226 1.97707C13.4286 2.22143 13.3586 2.38968 13.3138 2.48698C13.1799 2.54863 12.9183 2.65143 12.5025 2.80531L11.9216 3.02025C11.2676 3.26228 10.8333 3.88593 10.8333 4.58333C10.8333 5.28073 11.2676 5.9044 11.9216 6.14642L12.5025 6.36136C12.9183 6.51523 13.1832 6.61803 13.3171 6.67969C13.3787 6.81355 13.4847 7.08169 13.6387 7.49754L13.8536 8.07839C14.0956 8.73242 14.7192 9.16667 15.4167 9.16667C16.1141 9.16667 16.7377 8.73242 16.9797 8.07839L17.1947 7.49754C17.3486 7.08169 17.4513 6.81355 17.513 6.67968C17.6102 6.63488 17.7784 6.56836 18.0227 6.4763C18.125 7.51334 18.125 8.86783 18.125 10.4643C18.125 12.2899 18.125 13.7238 17.9745 14.8433C17.8202 15.9905 17.4977 16.9007 16.7826 17.6159C16.0674 18.3311 15.1572 18.6536 14.01 18.8078C12.8905 18.9583 11.4566 18.9583 9.631 18.9583C7.80538 18.9583 6.2762 18.9583 5.15668 18.8078C4.00947 18.6536 3.09926 18.3311 2.38409 17.6159C1.66893 16.9007 1.3464 15.9905 1.19216 14.8433C1.04165 13.7238 1.04166 12.2899 1.04167 10.4643C1.04166 8.63875 1.04165 7.10953 1.19216 5.99002C1.3464 4.84281 1.66893 3.93259 2.38409 3.21742C3.09926 2.50227 4.00947 2.17973 5.15668 2.02549C6.2762 1.87498 7.80047 1.87499 9.62608 1.875ZM11.6626 8.33333C11.6626 9.48392 10.7285 10.4167 9.57625 10.4167C8.42408 10.4167 7.48997 9.48392 7.48997 8.33333C7.48997 7.18274 8.42408 6.25 9.57625 6.25C10.7285 6.25 11.6626 7.18274 11.6626 8.33333ZM13.876 14.0649C11.9694 10.7283 7.19728 10.7283 5.29068 14.0649C5.18014 14.2583 5.18094 14.496 5.29277 14.6887C5.40459 14.8814 5.61054 15 5.83333 15H13.3333C13.5562 15 13.7621 14.8814 13.8739 14.6887C13.9857 14.496 13.9865 14.2583 13.876 14.0649Z" fill="#09090B"/>
<path d="M15.4167 1.04166C15.6782 1.04166 15.9121 1.2045 16.0028 1.44976L16.2177 2.03062C16.5194 2.84591 16.6157 3.06742 16.7741 3.22588C16.9326 3.38434 17.1541 3.48056 17.9694 3.78224L18.5502 3.99717C18.7955 4.08793 18.9583 4.32181 18.9583 4.58333C18.9583 4.84486 18.7955 5.07873 18.5502 5.16949L17.9694 5.38442C17.1541 5.68611 16.9326 5.78232 16.7741 5.94078C16.6157 6.09924 16.5194 6.32075 16.2177 7.13604L16.0028 7.7169C15.9121 7.96216 15.6782 8.125 15.4167 8.125C15.1552 8.125 14.9213 7.96216 14.8305 7.7169L14.6156 7.13604C14.3139 6.32075 14.2177 6.09924 14.0592 5.94078C13.9007 5.78232 13.6792 5.68611 12.8639 5.38442L12.2831 5.16949C12.0378 5.07873 11.875 4.84486 11.875 4.58333C11.875 4.32181 12.0378 4.08793 12.2831 3.99717L12.8639 3.78224C13.6792 3.48056 13.9007 3.38434 14.0592 3.22588C14.2177 3.06742 14.3139 2.84591 14.6156 2.03062L14.8305 1.44976C14.9213 1.2045 15.1552 1.04166 15.4167 1.04166Z" fill="#09090B"/>
</svg>
