<svg width="24" height="24" viewBox="0 0 24 24" fill="none" xmlns="http://www.w3.org/2000/svg">
<path d="M17.8349 0H6.16514C2.76023 0 0 2.76023 0 6.16514V17.8349C0 21.2398 2.76023 24 6.16514 24H17.8349C21.2398 24 24 21.2398 24 17.8349V6.16514C24 2.76023 21.2398 0 17.8349 0Z" fill="#09090B"/>
<path d="M18.6055 10.2385H14.7303C14.7082 9.93445 14.6337 9.63647 14.5101 9.3578C14.3971 9.0994 14.2308 8.86777 14.0221 8.67805C13.8134 8.48834 13.567 8.34482 13.2991 8.25688C12.9818 8.14011 12.6463 8.08047 12.3083 8.08073C11.6477 8.08073 11.1193 8.23486 10.6789 8.54312C10.2385 8.85137 9.88624 9.31376 9.66606 9.88624C9.44587 10.4807 9.33578 11.1853 9.33578 12C9.33578 12.8807 9.44587 13.5853 9.66606 14.1798C9.90826 14.7523 10.2385 15.1927 10.6789 15.5009C11.1193 15.7872 11.6477 15.9413 12.2862 15.9413C12.6385 15.9413 12.9468 15.8752 13.233 15.7872C13.4972 15.6991 13.7394 15.567 13.9596 15.3908C14.1798 15.2367 14.3339 15.0165 14.4661 14.7743C14.5982 14.5541 14.6862 14.2679 14.7303 13.9596L18.6055 13.9816C18.5483 14.6164 18.3767 15.2355 18.0991 15.8092C17.45 17.1688 16.3088 18.2312 14.9064 18.7817C14.0435 19.1168 13.1238 19.2813 12.1982 19.2661C10.8991 19.2661 9.73211 18.9798 8.71927 18.4294C7.68947 17.8601 6.84783 17.0032 6.29725 15.9633C5.68073 14.8844 5.3945 13.5633 5.3945 12C5.3945 10.4147 5.70275 9.09358 6.29725 8.0367C6.91376 6.93578 7.72844 6.1211 8.74128 5.57064C10.5735 4.65583 12.6898 4.49 14.6422 5.10826C15.3908 5.32844 16.0514 5.70275 16.6239 6.16514C17.194 6.63581 17.6591 7.22089 17.989 7.88257C18.3193 8.56514 18.5394 9.3578 18.6055 10.2385Z" fill="white"/>
<mask id="mask0_17_191" style="mask-type:alpha" maskUnits="userSpaceOnUse" x="4" y="5" width="11" height="15">
<path d="M9.13761 5.06422L11.2294 8.25688L13.7615 15.633L14.3119 19.156L7.37615 19.5963L4.62385 15.633L5.3945 7.9266L9.13761 5.06422Z" fill="#A1A1AA"/>
</mask>
<g mask="url(#mask0_17_191)">
<path d="M18.6056 10.2385H14.7304C14.7083 9.93441 14.6338 9.63643 14.5102 9.35775C14.3972 9.09936 14.2309 8.86773 14.0222 8.67801C13.8135 8.4883 13.5671 8.34478 13.2992 8.25684C12.9819 8.14007 12.6464 8.08043 12.3084 8.08069C11.6478 8.08069 11.1194 8.23482 10.679 8.54308C10.2386 8.85133 9.88634 9.31372 9.66615 9.8862C9.44597 10.4807 9.33588 11.1853 9.33588 12C9.33588 12.8807 9.44597 13.5853 9.66615 14.1798C9.90836 14.7522 10.2386 15.1926 10.679 15.5009C11.1194 15.7871 11.6478 15.9412 12.2863 15.9412C12.6386 15.9412 12.9469 15.8752 13.2331 15.7871C13.4973 15.699 13.7395 15.5669 13.9597 15.3908C14.1799 15.2367 14.334 15.0165 14.4662 14.7743C14.5983 14.5541 14.6863 14.2678 14.7304 13.9596L18.6056 13.9816C18.5484 14.6163 18.3768 15.2355 18.0992 15.8091C17.4501 17.1687 16.3089 18.2311 14.9065 18.7816C14.0436 19.1167 13.1239 19.2812 12.1983 19.266C10.8992 19.266 9.73221 18.9798 8.71936 18.4293C7.68957 17.8601 6.84793 17.0031 6.29735 15.9633C5.68083 14.8844 5.39459 13.5633 5.39459 12C5.39459 10.4146 5.70285 9.09353 6.29735 8.03665C6.91386 6.93574 7.72854 6.12106 8.74138 5.5706C10.5736 4.65579 12.6899 4.48995 14.6423 5.10821C15.3909 5.3284 16.0515 5.70271 16.624 6.16509C17.1941 6.63577 17.6592 7.22085 17.9891 7.88253C18.3194 8.56509 18.5395 9.35775 18.6056 10.2385Z" fill="#B2AEB9"/>
</g>
</svg>
