<svg width="20" height="20" viewBox="0 0 20 20" fill="none" xmlns="http://www.w3.org/2000/svg">
<path d="M12.9167 9.99999C12.9167 11.6108 11.6108 12.9167 10 12.9167C8.38917 12.9167 7.08333 11.6108 7.08333 9.99999C7.08333 8.38916 8.38917 7.08333 10 7.08333C11.6108 7.08333 12.9167 8.38916 12.9167 9.99999Z" stroke="#71717B" stroke-width="1.25"/>
<path d="M17.5092 11.7471C17.9441 11.6298 18.1616 11.5712 18.2474 11.459C18.3333 11.3469 18.3333 11.1665 18.3333 10.8057V9.19433C18.3333 8.83358 18.3333 8.65317 18.2474 8.54108C18.1615 8.42892 17.9441 8.37025 17.5092 8.25298C15.8838 7.81466 14.8666 6.11542 15.2861 4.50072C15.4014 4.05666 15.4591 3.83463 15.404 3.70441C15.3489 3.57418 15.1909 3.48445 14.8747 3.30497L13.4375 2.48894C13.1273 2.31282 12.9722 2.22477 12.8331 2.24352C12.6938 2.26227 12.5368 2.41894 12.2227 2.73227C11.0067 3.9454 8.99467 3.94535 7.77862 2.7322C7.46452 2.41886 7.30748 2.26219 7.16827 2.24343C7.02907 2.22468 6.87397 2.31274 6.56377 2.48886L5.12653 3.30489C4.81044 3.48436 4.65239 3.57409 4.59732 3.70429C4.54223 3.8345 4.59989 4.05656 4.71521 4.50067C5.13447 6.11542 4.11643 7.81469 2.49085 8.253C2.05593 8.37025 1.83847 8.42892 1.75257 8.541C1.66667 8.65317 1.66667 8.83358 1.66667 9.19433V10.8057C1.66667 11.1665 1.66667 11.3469 1.75257 11.459C1.83846 11.5712 2.05592 11.6298 2.49085 11.7471C4.11617 12.1854 5.1334 13.8847 4.71393 15.4993C4.59857 15.9434 4.54089 16.1654 4.59597 16.2957C4.65105 16.4259 4.8091 16.5157 5.12521 16.6951L6.56246 17.5112C6.87267 17.6872 7.02778 17.7753 7.167 17.7566C7.30622 17.7378 7.46323 17.5811 7.77726 17.2677C8.99392 16.0537 11.0073 16.0536 12.2241 17.2677C12.5381 17.5811 12.6951 17.7377 12.8343 17.7565C12.9735 17.7752 13.1287 17.6872 13.4388 17.5111L14.8761 16.695C15.1922 16.5156 15.3503 16.4258 15.4053 16.2956C15.4604 16.1653 15.4027 15.9433 15.2873 15.4992C14.8677 13.8847 15.8841 12.1855 17.5092 11.7471Z" stroke="#71717B" stroke-width="1.25" stroke-linecap="round"/>
</svg>
