<svg width="16" height="16" viewBox="0 0 16 16" fill="none" xmlns="http://www.w3.org/2000/svg">
<path d="M7.99499 6.4404C9.34418 6.4404 10.4379 5.34667 10.4379 3.99748C10.4379 2.6483 9.34418 1.55457 7.99499 1.55457C6.64581 1.55457 5.55208 2.6483 5.55208 3.99748C5.55208 5.34667 6.64581 6.4404 7.99499 6.4404Z" stroke="#737373" stroke-width="1.3325" stroke-linecap="round" stroke-linejoin="round"/>
<path d="M15.3237 13.1029H10.8821" stroke="#737373" stroke-width="1.3325" stroke-linecap="round" stroke-linejoin="round"/>
<path d="M13.1029 10.8821V15.3237" stroke="#737373" stroke-width="1.3325" stroke-linecap="round" stroke-linejoin="round"/>
<path d="M11.2223 9.71127C10.3127 9.05568 9.20224 8.66125 7.995 8.66125C5.72886 8.66125 3.78518 10.0204 2.9235 11.9659C2.59926 12.6987 3.00079 13.5418 3.76475 13.7825C4.85296 14.1254 6.29295 14.4345 7.995 14.4345C8.36987 14.4345 8.72698 14.4141 9.0761 14.3875" stroke="#737373" stroke-width="1.3325" stroke-linecap="round" stroke-linejoin="round"/>
</svg>